<?xml version="1.0" encoding="utf-8"?>
<svg id="master-artboard" viewBox="0 0 890.8323364257812 918.8998413085938" xmlns="http://www.w3.org/2000/svg" width="890.8323364257812px" height="918.8998413085938px" version="1.1" style="shape-rendering:geometricPrecision; text-rendering:geometricPrecision; image-rendering:optimizeQuality; fill-rule:evenodd; clip-rule:evenodd"><g transform="matrix(1.8775928020477295, 0, 0, 1.8775928020477295, -105.90687561035156, -27.72213840484619)"><rect id="ee-background" x="0" y="0" width="890.8323364257812" height="918.8998413085938" style="fill: white; fill-opacity: 0; pointer-events: none;"/><g transform="matrix(1.46999990940094, 0, 0, 1.46999990940094, 182.95472717285156, -240.0270757675171)"><metadata id="metadata8"/><defs id="defs6"><style id="ee-google-fonts">@import url(https://fonts.googleapis.com/css?family=Boogaloo:400);</style></defs><g transform="matrix(1.3333333,0,0,-1.3333333,0,666.66667)" id="g10"><g transform="matrix(0.10000000149011613, 0, 0, 0.10000000149011613, 39.671053575998485, -1.1368683772161603e-13)" id="g12"><path id="path54" style="fill: rgb(135, 231, 243); fill-opacity: 1; fill-rule: nonzero; stroke: none;" d="m 1893.95,1234.83 c -33.95,-0.75 -61.96,-24.36 -69.83,-55.79 l -52.81,-1.35 c -7.47,60.09 -34.02,114.22 -73.46,156.16 l 52.26,51.11 c 28.31,-18.91 66.92,-16.2 92.31,8.49 29.19,28.4 29.84,75.09 1.44,104.29 -28.4,29.2 -75.09,29.84 -104.29,1.45 -24.34,-23.69 -28.76,-60.03 -13.14,-88.4 l -54.09,-52.9 c -44.98,37.19 -101.83,60.54 -164.01,63.52 v 56.76 c 33.35,7.07 58.39,36.66 58.39,72.12 0,40.73 -33.02,73.75 -73.75,73.75 -40.73,0 -73.75,-33.02 -73.75,-73.75 0,-33.91 22.91,-62.39 54.08,-71.02 v -58.42 c -64.91,-4.95 -123.59,-32.08 -168.46,-73.9 l -64.85,67.77 c 19.22,28.22 16.79,66.96 -7.81,92.55 -28.22,29.38 -74.91,30.31 -104.28,2.08 -29.37,-28.22 -30.3,-74.9 -2.08,-104.27 23.47,-24.42 59.68,-29.11 88.11,-13.79 l 66.76,-69.79 c -33.68,-40.35 -56.12,-90.37 -62.65,-145.28 l -38.04,4.71 c -2.91,33.97 -29.19,62.47 -64.38,66.83 -40.43,5.01 -77.26,-23.69 -82.27,-64.11 -5.02,-40.42 23.69,-77.26 64.11,-82.28 33.64,-4.17 64.74,15.06 77.13,44.94 l 41.46,-5.15 c 0.42,-65.5 23.43,-125.61 61.63,-172.98 l -62.89,-59.41 c -27.9,19.371 -66.45,17.449 -92.31,-6.661 -29.79,-27.789 -31.41,-74.457 -3.63,-104.238 27.78,-29.789 74.45,-31.422 104.23,-3.629 24.88,23.199 30.04,59.539 14.9,88.246 l 63.37,59.852 c 45.13,-43.508 104.88,-71.918 171.18,-77.16 L 1472,800.641 c -33.41,-6.801 -58.69,-36.18 -58.99,-71.641 -0.33,-40.73 32.42,-74.02 73.14,-74.352 40.73,-0.347 74.02,32.403 74.36,73.133 0.28,33.91 -22.4,62.59 -53.49,71.461 l 0.54,65.297 c 66.38,3 126.7,29.211 173.06,70.723 l 41,-36.453 c -16.88,-29.629 -11.4,-68 15.1,-91.567 30.43,-27.07 77.05,-24.332 104.12,6.11 27.06,30.437 24.33,77.058 -6.11,104.117 -25.34,22.531 -61.86,24.34 -89.01,6.773 l -40.51,36.02 c 42.47,48.878 68.25,112.638 68.32,182.448 l 50.33,1.28 c 7.87,-33.1 37.96,-57.4 73.36,-56.62 40.72,0.9 73,34.65 72.1,75.36 -0.91,40.72 -34.65,73.01 -75.37,72.1" transform="matrix(2.2277059555053706, 0, 0, 2.2277059555053706, -3148.0128967981236, -96.53231031273572)"/><path id="path56" style="fill:#1e6c6c;fill-opacity:1;fill-rule:nonzero;stroke:none" d="m 1112.02,1218.77 c 24.41,-3.03 41.75,-25.28 38.72,-49.69 -3.03,-24.41 -25.27,-41.75 -49.69,-38.72 -24.41,3.04 -41.75,25.28 -38.72,49.69 3.03,24.41 25.27,41.75 49.69,38.72" transform="matrix(2.2277059555053706, 0, 0, 2.2277059555053706, -3148.0128967981236, -96.53231031273572)"/><path id="path58" style="fill:#1e6c6c;fill-opacity:1;fill-rule:nonzero;stroke:none" d="m 1756.12,829.07 c -18.38,16.352 -20.03,44.5 -3.69,62.879 16.35,18.391 44.5,20.039 62.89,3.692 18.38,-16.352 20.04,-44.5 3.69,-62.879 -16.35,-18.391 -44.5,-20.043 -62.89,-3.692" transform="matrix(2.2277059555053706, 0, 0, 2.2277059555053706, -3148.0128967981236, -96.53231031273572)"/><path id="path60" style="fill:#1e6c6c;fill-opacity:1;fill-rule:nonzero;stroke:none" d="m 1822.05,1414.39 c -17.63,-17.16 -45.83,-16.77 -62.99,0.87 -17.15,17.64 -16.76,45.83 0.87,62.99 17.63,17.15 45.84,16.76 62.99,-0.87 17.15,-17.64 16.76,-45.84 -0.87,-62.99" transform="matrix(2.2277059555053706, 0, 0, 2.2277059555053706, -3148.0128967981236, -96.53231031273572)"/><path id="path62" style="fill: rgb(7, 224, 252); fill-opacity: 1; fill-rule: nonzero; stroke: none;" d="m 1703.82,1142.99 c 0,-115.46 -93.59,-209.06 -209.05,-209.06 -115.46,0 -209.06,93.6 -209.06,209.06 0,115.45 93.6,209.05 209.06,209.05 115.46,0 209.05,-93.6 209.05,-209.05" transform="matrix(2.2277059555053706, 0, 0, 2.2277059555053706, -3148.0128967981236, -96.53231031273572)"/><path id="path64" style="fill:#258685;fill-opacity:1;fill-rule:nonzero;stroke:none" d="m 1633.22,1142.99 c 0,-76.47 -61.99,-138.45 -138.45,-138.45 -76.46,0 -138.45,61.98 -138.45,138.45 0,76.46 61.99,138.44 138.45,138.44 76.46,0 138.45,-61.98 138.45,-138.44" transform="matrix(2.2277059555053706, 0, 0, 2.2277059555053706, -3148.0128967981236, -96.53231031273572)"/><path id="path66" style="fill: rgb(3, 117, 132); fill-opacity: 1; fill-rule: nonzero; stroke: none;" d="m 1565.39,1142.99 c 0,-39.01 -31.61,-70.63 -70.62,-70.63 -39,0 -70.62,31.62 -70.62,70.63 0,39 31.62,70.62 70.62,70.62 39.01,0 70.62,-31.62 70.62,-70.62" transform="matrix(2.2277059555053706, 0, 0, 2.2277059555053706, -3148.0128967981236, -96.53231031273572)"/><path id="path68" style="fill:#1e6c6c;fill-opacity:1;fill-rule:nonzero;stroke:none" d="m 1537.51,1550.29 c 0,-24.6 -19.94,-44.54 -44.54,-44.54 -24.6,0 -44.54,19.94 -44.54,44.54 0,24.6 19.94,44.54 44.54,44.54 24.6,0 44.54,-19.94 44.54,-44.54" transform="matrix(2.2277059555053706, 0, 0, 2.2277059555053706, -3148.0128967981236, -96.53231031273572)"/><path id="path70" style="fill:#1e6c6c;fill-opacity:1;fill-rule:nonzero;stroke:none" d="m 1896.57,1116.57 c -24.59,-0.55 -44.97,18.95 -45.52,43.54 -0.54,24.6 18.95,44.97 43.55,45.52 24.59,0.55 44.97,-18.94 45.52,-43.54 0.54,-24.59 -18.96,-44.97 -43.55,-45.52" transform="matrix(2.2277059555053706, 0, 0, 2.2277059555053706, -3148.0128967981236, -96.53231031273572)"/><path id="path72" style="fill:#1e6c6c;fill-opacity:1;fill-rule:nonzero;stroke:none" d="m 1442.22,728.762 c 0.2,24.597 20.31,44.367 44.91,44.168 24.6,-0.2 44.38,-20.309 44.17,-44.91 -0.2,-24.598 -20.31,-44.372 -44.91,-44.18 -24.6,0.211 -44.37,20.32 -44.17,44.922" transform="matrix(2.2277059555053706, 0, 0, 2.2277059555053706, -3148.0128967981236, -96.53231031273572)"/><path id="path74" style="fill:#1e6c6c;fill-opacity:1;fill-rule:nonzero;stroke:none" d="m 1142.4,880.742 c 17.99,16.789 46.18,15.797 62.96,-2.191 16.78,-18 15.79,-46.18 -2.2,-62.961 -17.99,-16.77 -46.18,-15.789 -62.95,2.199 -16.78,17.992 -15.8,46.172 2.19,62.953" transform="matrix(2.2277059555053706, 0, 0, 2.2277059555053706, -3148.0128967981236, -96.53231031273572)"/><path id="path76" style="fill:#1e6c6c;fill-opacity:1;fill-rule:nonzero;stroke:none" d="m 1211.12,1487.04 c 17.05,-17.74 16.48,-45.94 -1.26,-62.98 -17.73,-17.04 -45.93,-16.48 -62.97,1.26 -17.05,17.73 -16.49,45.93 1.25,62.98 17.74,17.04 45.93,16.48 62.98,-1.26" transform="matrix(2.2277059555053706, 0, 0, 2.2277059555053706, -3148.0128967981236, -96.53231031273572)"/><g transform="scale(10)" id="g84">
</g><path d="M 4791.2666015625 2363.1845703125" style="fill: rgb(37, 134, 133); fill-opacity: 1; stroke: rgb(0, 0, 0); stroke-opacity: 1; stroke-width: 0; paint-order: fill;"/><path d="M -124.49456787109375 2915.129638671875" style="fill: rgb(37, 134, 133); fill-opacity: 1; stroke: rgb(0, 0, 0); stroke-opacity: 1; stroke-width: 0; paint-order: fill;"/><path d="M 5515.6943359375 -1534.9276123046875 L 7688.97802734375 1604.2601318359375" style="fill: rgb(135, 231, 243); fill-opacity: 1; stroke: rgb(0, 0, 0); stroke-opacity: 1; stroke-width: 0; paint-order: fill;"/><path d="M 2514.492919921875 -1431.4378662109375 L 2514.492919921875 -1431.4378662109375" style="fill: rgb(3, 117, 132); fill-opacity: 1; stroke: rgb(0, 0, 0); stroke-opacity: 1; stroke-width: 0; paint-order: fill;"/></g></g></g></g></svg>